<svg xmlns="http://www.w3.org/2000/svg" xmlns:xlink="http://www.w3.org/1999/xlink" width="1250" height="1250" viewBox="0 0 1250 1250">
  <defs>
    <clipPath id="clip-Logo_Hexagon_PinkWhite">
      <rect width="1250" height="1250"/>
    </clipPath>
  </defs>
  <g id="Logo_Hexagon_PinkWhite" clip-path="url(#clip-Logo_Hexagon_PinkWhite)">
    <path id="Hexagon" d="M365,844a77.9,77.9,0,0,1-39.856-10.932L97.116,697.247l277.1-57.467,64.567,173.081-33.926,20.207A77.9,77.9,0,0,1,365,844ZM469.188,794.75h0L362.978,510.036,551.46,566.26l26.568,163.662L469.189,794.75ZM610.266,710.72h0L588.616,577.343l138.275,41.247a74.767,74.767,0,0,1-33.527,42.635l-83.1,49.5ZM53.74,671.412v0h0l-17.1-10.184A75.654,75.654,0,0,1,9.785,634.047,73.376,73.376,0,0,1,0,597.526V401.762l64.709,19.3.413,1,1.265-.5,254.777,76L362.156,607.45ZM730,583.892v0L582.538,539.9l-42.1-259.365L730,441.316V583.892ZM545.383,528.82,348.022,469.949,296.181,330.981l204.031-80.428ZM306.208,457.476h0l-188.37-56.191,145.95-57.532,42.423,113.725v0h0ZM730,396.175v0h0L506.915,206.963l-.374-.9-.471.185L296.147,28.2l29-17.272a78.123,78.123,0,0,1,79.712,0L693.364,182.776a75.641,75.641,0,0,1,26.851,27.177A73.38,73.38,0,0,1,730,246.474V396.169h0v.006ZM57.189,383.194h0L0,366.135V246.474a73.379,73.379,0,0,1,9.785-36.522,75.649,75.649,0,0,1,26.852-27.178l136.718-81.433,76.772,205.8L57.189,383.194Zm225.334-88.825h0L203.76,83.231l61.118-36.4L469.73,220.571l-187.207,73.8Z" transform="translate(260.156 203.208)" fill="#d52572"/>
  </g>
</svg>
